PathFileType	4	(X/Y/Z)	C:\Users\Basilio\Documents\Thesis Gigler\squatting_fais\c3dfiles\036\SJ_pre3\markers_experimental.trc
DataRate	CameraRate	NumFrames	NumMarkers	Units	OrigDataRate	OrigDataStartFrame	OrigNumFrames
200.000000	200.000000	4	61	mm	200.000000	1574	2099
Frame#	Time	FHD			LBHD			RBHD			C7			T10			CLAV			LSHO			LUUPA			LMUPA			LDUPA			LLEP			LMEP			LRAD			LUL			LRFIN			RSHO			RUPA1			RMUPA			RDUPA			RLEP			RMEP			RRAD			RUL			RUFIN			LASI			RASI			USACR			LSACR			RSACR			LTHI1			LTHI2			LTHI3			LTHI4			LLFC			LMFC			LTIB1			LTIB2			LTIB3			LTIB4			LLMAL			LMMAL			LHEE			LMT1			LMT2			LMT5			RTHI			RTHI2			RTHI3			RTHI4			RLFC			RMFC			RTIB1			RTIB2			RTIB3			RTIB4			RLMAL			RMMAL			RHEE			RMT1			RMT2			RMT5			
		X1	Y1	Z1	X2	Y2	Z2	X3	Y3	Z3	X4	Y4	Z4	X5	Y5	Z5	X6	Y6	Z6	X7	Y7	Z7	X8	Y8	Z8	X9	Y9	Z9	X10	Y10	Z10	X11	Y11	Z11	X12	Y12	Z12	X13	Y13	Z13	X14	Y14	Z14	X15	Y15	Z15	X16	Y16	Z16	X17	Y17	Z17	X18	Y18	Z18	X19	Y19	Z19	X20	Y20	Z20	X21	Y21	Z21	X22	Y22	Z22	X23	Y23	Z23	X24	Y24	Z24	X25	Y25	Z25	X26	Y26	Z26	X27	Y27	Z27	X28	Y28	Z28	X29	Y29	Z29	X30	Y30	Z30	X31	Y31	Z31	X32	Y32	Z32	X33	Y33	Z33	X34	Y34	Z34	X35	Y35	Z35	X36	Y36	Z36	X37	Y37	Z37	X38	Y38	Z38	X39	Y39	Z39	X40	Y40	Z40	X41	Y41	Z41	X42	Y42	Z42	X43	Y43	Z43	X44	Y44	Z44	X45	Y45	Z45	X46	Y46	Z46	X47	Y47	Z47	X48	Y48	Z48	X49	Y49	Z49	X50	Y50	Z50	X51	Y51	Z51	X52	Y52	Z52	X53	Y53	Z53	X54	Y54	Z54	X55	Y55	Z55	X56	Y56	Z56	X57	Y57	Z57	X58	Y58	Z58	X59	Y59	Z59	X60	Y60	Z60	X61	Y61	Z61	

1575	7.87	-142.0807800292969	1550.421142578125	-961.088317871094	-292.9099121093751	1473.50048828125	-1034.683715820313	-259.6741027832032	1503.599609375	-889.1600341796877	-331.4875488281251	1373.734741210938	-977.4851074218752	-345.0128173828126	1067.741455078125	-964.238464355469	-185.9314117431641	1313.498413085938	-957.946960449219	-228.2056274414063	1353.732543945313	-1105.369018554688	-276.3600158691407	1224.295166015625	-1234.896118164063	-241.9577941894532	1188.206665039063	-1234.11865234375	-286.0152587890626	1163.668212890625	-1268.1826171875	-287.8869934082032	1108.059326171875	-1281.926879882813	-346.6243286132813	1098.025634765625	-1248.60107421875	-173.8255615234375	907.6370239257815	-1226.706665039063	-209.9070434570313	925.1238403320315	-1168.806030273438	-179.3182373046875	872.5564575195315	-1137.674072265625	-243.1126251220704	1357.970825195313	-813.127868652344	-290.9937744140626	1246.974365234375	-693.0880126953126	-251.0054016113282	1217.970947265625	-689.1530761718751	-288.4996337890626	1189.419555664063	-652.8929443359376	-281.2322692871094	1121.495727539063	-627.7598876953126	-340.0930480957032	1092.290893554688	-667.3944091796876	-208.7679901123047	935.2189941406252	-738.7266235351564	-164.5020599365235	924.7164306640627	-689.5471801757814	-178.5744018554688	896.706237792969	-780.0156250000002	-161.1613006591797	876.0073852539065	-1082.807495117188	-180.6804351806641	886.874938964844	-813.1774902343752	-352.3655700683594	984.736267089844	-966.4844970703127	-372.5100402832032	958.2287597656252	-992.3524169921877	-375.8307800292969	962.8248291015627	-937.703063964844	-252.9756469726563	753.3644409179689	-1163.715087890625	-227.3277893066407	674.2782592773439	-1167.4697265625	-182.2596130371094	675.0864868164064	-1150.299926757813	-258.1288757324219	623.7680664062501	-1167.9697265625	-299.4078369140626	470.2883911132814	-1155.9658203125	-288.7486572265626	422.3524475097657	-1011.629943847656	-245.0425262451172	280.6607971191407	-1095.74853515625	-269.9463500976563	246.4887084960938	-1172.697631835938	-248.6331481933594	237.8971405029297	-1133.265258789063	-259.4374084472657	157.1534576416016	-1109.618041992188	-316.4621582031251	82.79414367675783	-1170.001586914063	-296.1024780273438	82.81044769287111	-1086.587158203125	-369.5930480957032	56.21725082397462	-1135.230102539063	-179.3638153076172	53.01621246337892	-1104.495483398438	-167.0649566650391	53.68247222900392	-1151.77392578125	-207.5503234863282	33.59879302978516	-1202.0029296875	-318.9821472167969	710.9384765625001	-750.4892578125001	-280.3783874511719	657.7518310546876	-737.0567626953126	-248.1060180664063	662.2548828125001	-733.3747558593751	-301.4399719238282	578.0518798828126	-745.3483886718751	-288.7566833496094	464.4740600585939	-747.2985229492189	-257.7406311035157	444.377655029297	-891.691345214844	-240.8335418701172	307.6712036132813	-772.7217407226565	-308.3576660156251	234.6532745361329	-720.8297729492189	-264.7261962890626	231.7576751708985	-738.3547363281251	-253.2608032226563	180.1039733886719	-765.3591918945314	-323.9695434570313	82.3584671020508	-740.7433471679689	-286.7360534667969	85.65030670166017	-815.2607421875002	-364.7193298339844	54.302059173584	-779.9761352539065	-167.7803192138672	54.26848602294923	-781.274597167969	-169.1287078857422	57.57600784301759	-731.2159423828126	-211.2810363769532	33.07310867309571	-687.7155151367189	
1576	7.875	-142.2837524414063	1550.447387695313	-961.0850219726565	-293.0296325683594	1473.4892578125	-1034.637817382813	-259.7009582519532	1503.619018554688	-889.1179809570315	-331.5860595703126	1373.750610351563	-977.4111938476565	-345.0260314941407	1067.70361328125	-964.1314697265627	-185.9654235839844	1313.492553710938	-957.9207153320315	-228.2804565429688	1353.707641601563	-1105.345458984375	-276.4623107910157	1224.316650390625	-1234.816650390625	-242.0102539062501	1188.212280273438	-1234.085571289063	-286.1300048828126	1163.689331054688	-1268.129638671875	-288.0705871582032	1108.116943359375	-1281.830322265625	-346.7413940429688	1098.032592773438	-1248.553100585938	-173.9889678955078	907.622009277344	-1226.708984375	-209.9774017333985	925.1242675781252	-1168.797729492188	-179.384521484375	872.5552368164065	-1137.687622070313	-243.1666564941407	1357.962768554688	-813.0708007812502	-291.0304565429688	1246.964599609375	-693.0206298828126	-251.0116577148438	1217.933471679688	-689.1060791015626	-288.5923461914063	1189.4404296875	-652.8120117187501	-281.2548828125001	1121.447387695313	-627.6909790039064	-340.2963256835938	1092.292358398438	-667.3594970703126	-208.7685699462891	935.2321777343752	-738.7216186523439	-164.5934295654297	924.6774902343752	-689.5258789062501	-178.6852264404297	896.693054199219	-779.9829101562502	-161.276840209961	875.995300292969	-1082.739379882813	-180.7943878173828	886.8735351562502	-813.137145996094	-352.4659729003907	984.7341308593752	-966.4307250976565	-372.6671752929688	958.2479248046877	-992.3049316406252	-375.9116516113282	962.854187011719	-937.6729125976565	-253.8700103759766	753.6375732421876	-1163.561889648438	-227.4191131591797	674.2965698242189	-1167.458251953125	-182.3886260986328	675.0226440429689	-1150.208862304688	-258.3669433593751	623.8143310546876	-1167.906982421875	-299.6007080078126	470.2742309570314	-1155.884765625	-288.7727050781251	422.3591308593751	-1011.585266113281	-245.2185516357422	280.7516174316407	-1095.76806640625	-270.1132507324219	246.5115356445313	-1172.618896484375	-248.6393585205079	237.9318237304688	-1133.252075195313	-259.4789733886719	157.1371765136719	-1109.621337890625	-316.4049072265626	82.8130340576172	-1169.994750976563	-296.2536926269532	82.71470642089845	-1086.652221679688	-369.6046142578126	56.22533798217775	-1135.210693359375	-179.34619140625	53.0218963623047	-1104.470458984375	-167.0739898681641	53.72561645507814	-1151.77734375	-207.5334777832032	33.60161972045899	-1202.00537109375	-319.0417480468751	710.9035034179689	-750.4645996093751	-280.4399719238282	657.8125610351564	-737.1850585937501	-248.1624298095704	662.2172241210939	-733.3707885742189	-301.4249267578126	578.0444946289064	-745.3419189453126	-288.7565917968751	464.4238281250001	-747.3052978515626	-258.1865844726563	444.3699645996095	-891.463317871094	-240.8614349365235	307.6962585449219	-772.7075195312502	-308.3637390136719	234.6262207031251	-720.8218383789064	-264.7176208496094	231.7694396972657	-738.3532104492189	-253.2971343994141	180.095947265625	-765.4232177734376	-323.9699707031251	82.35117340087892	-740.7260131835939	-286.7006530761719	85.61788940429689	-815.2750244140627	-364.7194213867188	54.29771423339845	-779.9818115234377	-167.7499542236328	54.30072402954103	-781.2742309570315	-169.7608032226563	57.53844070434572	-731.0352172851564	-211.2843627929688	33.06330108642579	-687.7151489257814	
1577	7.88	-142.3333129882813	1550.533081054688	-961.1508789062502	-293.0200500488282	1473.405029296875	-1034.579467773438	-259.7755737304688	1503.61962890625	-889.1155395507815	-331.9151611328126	1373.879638671875	-977.1240234375002	-345.1459655761719	1067.722534179688	-964.1127929687502	-185.9781646728516	1313.482421875	-957.8475341796877	-228.3585662841797	1353.701171875	-1105.29443359375	-276.5771179199219	1224.33544921875	-1234.802368164063	-242.2283325195313	1188.23828125	-1233.996948242188	-286.2518310546876	1163.690673828125	-1268.088256835938	-288.2196044921876	1108.113647460938	-1281.776977539063	-346.8684997558594	1098.1015625	-1248.583984375	-174.1834869384766	907.662048339844	-1226.704833984375	-210.0966339111329	925.1003417968752	-1168.757202148438	-179.5365295410157	872.5535888671877	-1137.651245117188	-243.1780548095704	1357.943237304688	-813.0341796875002	-291.0614318847657	1246.966186523438	-692.9486694335939	-251.0390167236329	1217.92431640625	-689.1172485351564	-288.6949462890626	1189.435302734375	-652.7728881835939	-281.3562622070313	1121.469604492188	-627.6202392578126	-340.3613891601563	1092.244750976563	-667.3222045898439	-208.8265075683594	935.2475585937502	-738.7031860351564	-164.6655883789063	924.6790771484377	-689.4806518554689	-178.7309265136719	896.6900024414065	-779.9743652343752	-161.3907318115235	875.962585449219	-1082.72314453125	-180.8102111816407	886.8801879882815	-813.1140747070315	-352.5922851562501	984.749450683594	-966.3551025390627	-372.8526306152344	958.292419433594	-992.2025146484377	-376.0310363769532	962.8872070312502	-937.651062011719	-254.0726776123047	753.6915893554689	-1163.496459960938	-227.5449371337891	674.2595214843751	-1167.421508789063	-182.5509948730469	675.0903320312501	-1150.233154296875	-258.3870544433594	623.7975463867189	-1167.884521484375	-299.7281494140626	470.2473449707032	-1155.838745117188	-288.8831481933594	422.336639404297	-1011.506164550781	-245.2219543457032	280.7570495605469	-1095.770385742188	-270.1559143066407	246.507064819336	-1172.558959960938	-248.6380157470704	237.920883178711	-1133.252075195313	-259.5082397460938	157.1611785888672	-1109.571411132813	-316.3564453125001	82.79573822021486	-1169.982543945313	-296.0928955078126	82.80781555175783	-1086.5576171875	-369.5803833007813	56.1790237426758	-1135.242431640625	-179.362060546875	52.99677658081056	-1104.458618164063	-166.9376983642578	53.7018280029297	-1151.782836914063	-207.6120300292969	33.40179824829102	-1201.911987304688	-319.0631713867188	710.8950195312501	-750.4520263671876	-280.4324951171876	657.8076171875001	-737.1690673828126	-248.2389221191407	662.2179565429689	-733.3411865234376	-301.4425659179688	578.0211791992189	-745.3204345703126	-288.8098144531251	464.400115966797	-747.3105468750001	-258.2281799316407	444.3889160156251	-891.4529418945315	-240.9336853027344	307.7535095214844	-772.5505981445315	-308.4053344726563	234.6179962158204	-720.8264160156251	-264.7229309082032	231.752182006836	-738.3797607421876	-253.4020996093751	180.1143035888672	-765.3465576171876	-323.9898681640626	82.37245178222658	-740.7774658203126	-286.7422180175782	85.64782714843751	-815.247253417969	-364.7229003906251	54.30107879638673	-779.979675292969	-167.7791290283203	54.27698516845705	-781.2933349609377	-169.6661682128907	57.61177444458009	-731.0657348632814	-211.2649993896485	33.0506935119629	-687.7406005859376	
1578	7.885	-142.3882293701172	1550.543334960938	-961.1647949218752	-293.0679016113282	1473.375610351563	-1034.462158203125	-259.8281250000001	1503.598999023438	-889.061950683594	-331.9449768066407	1373.865356445313	-977.0444335937502	-345.2663269042969	1067.738891601563	-964.0792236328127	-186.0081634521485	1313.507080078125	-957.8655395507815	-228.4642639160157	1353.765869140625	-1105.263427734375	-276.7280883789063	1224.3759765625	-1234.714599609375	-242.4818725585938	1188.307250976563	-1233.968139648438	-286.3155212402344	1163.698120117188	-1268.025146484375	-288.3392333984376	1108.117431640625	-1281.7109375	-347.2882995605469	1098.298217773438	-1248.299560546875	-174.353256225586	907.6436767578127	-1226.659423828125	-210.1416168212891	925.1431884765627	-1168.736450195313	-179.6788330078125	872.583190917969	-1137.68408203125	-243.1958465576172	1357.941528320313	-812.9617919921877	-291.1546020507813	1246.939575195313	-692.9184570312501	-251.0999145507813	1217.9228515625	-689.1129150390626	-288.7749938964844	1189.41943359375	-652.6853027343751	-281.4292907714844	1121.53759765625	-627.4109497070314	-340.4273071289063	1092.260498046875	-667.2759399414064	-208.9219055175782	935.2476806640627	-738.6875610351564	-164.8072814941407	924.6812133789065	-689.3781738281251	-178.8593139648438	896.662536621094	-779.928894042969	-161.5848846435547	875.9704589843752	-1082.577758789063	-180.8521728515625	886.8865356445315	-813.1508789062502	-352.7505798339844	984.7943115234377	-966.247009277344	-372.9213867187501	958.296569824219	-992.166687011719	-376.2325744628907	962.9063720703127	-937.615417480469	-254.199935913086	753.6469116210939	-1163.419799804688	-227.6551513671876	674.2189941406251	-1167.343994140625	-182.6390228271485	675.0513916015626	-1150.154296875	-258.5195007324219	623.7859497070314	-1167.830078125	-299.3533020019532	470.2720031738282	-1155.950805664063	-289.0445556640626	422.3008422851564	-1011.464904785156	-245.2017669677735	280.7388305664063	-1095.762573242188	-270.2473449707032	246.4910888671876	-1172.612182617188	-248.6730499267579	237.928451538086	-1133.296142578125	-259.5125427246094	157.2327117919922	-1109.552124023438	-316.4445800781251	82.83641052246095	-1170.008178710938	-296.1258544921876	82.77074432373048	-1086.588745117188	-369.5401916503907	56.16255569458009	-1135.26416015625	-179.3838958740235	52.99185180664064	-1104.490234375	-167.0772094726563	53.73390197753908	-1151.765991210938	-207.5647430419922	33.58737564086915	-1202.016967773438	-319.0816345214844	710.8732299804689	-750.4210205078126	-280.4876708984376	657.8042602539064	-737.1905517578126	-248.261215209961	662.2031250000001	-733.2979736328126	-301.4772949218751	578.0108032226564	-745.3209228515626	-288.8558349609376	464.3811645507814	-747.3332519531251	-258.4089660644532	444.4248657226564	-891.4473266601565	-240.9842529296876	307.7438659667969	-772.5369873046877	-308.4252014160157	234.584701538086	-720.8334960937501	-264.7890014648438	231.7148132324219	-738.4342651367189	-253.3935089111329	180.1302337646485	-765.3604125976564	-323.9704284667969	82.35042572021486	-740.7597656250001	-286.8196105957032	85.67440795898439	-815.2612915039065	-364.7243347167969	54.25657272338869	-779.9667968750002	-167.7888793945313	54.26679992675783	-781.297058105469	-169.719955444336	57.57192993164064	-731.0253906250001	-211.2662353515626	33.10840225219727	-687.7241821289064	
